<svg id="logo" width="100%" height="100%" viewBox="0 0 128 128" version="1.1" xmlns="http://www.w3.org/2000/svg"
  xmlns:xlink="http://www.w3.org/1999/xlink" xml:space="preserve" xmlns:serif="http://www.serif.com/"
  style="fill-rule:evenodd;clip-rule:evenodd;stroke-linejoin:round;stroke-miterlimit:2;">
  <path
    d="M68.812,77.34l0,-14.522l52.43,-0.084l-0,45.928c-8.049,6.417 -16.351,11.243 -24.906,14.479c-8.556,3.237 -17.336,4.855 -26.342,4.855c-12.157,0 -23.203,-2.603 -33.137,-7.81c-9.935,-5.206 -17.435,-12.734 -22.5,-22.584c-5.066,-9.85 -7.599,-20.853 -7.599,-33.011c0,-12.045 2.519,-23.288 7.556,-33.729c5.038,-10.441 12.285,-18.194 21.741,-23.26c9.455,-5.065 20.347,-7.598 32.673,-7.598c8.949,-0 17.04,1.449 24.273,4.348c7.232,2.899 12.903,6.937 17.012,12.115c4.109,5.179 7.233,11.933 9.371,20.263l-14.774,4.052c-1.858,-6.303 -4.165,-11.257 -6.923,-14.859c-2.758,-3.602 -6.698,-6.487 -11.82,-8.654c-5.122,-2.167 -10.807,-3.25 -17.055,-3.25c-7.486,-0 -13.958,1.14 -19.418,3.419c-5.46,2.28 -9.864,5.277 -13.213,8.992c-3.349,3.715 -5.952,7.795 -7.809,12.242c-3.152,7.655 -4.728,15.957 -4.728,24.906c-0,11.032 1.899,20.262 5.699,27.692c3.799,7.43 9.329,12.946 16.59,16.548c7.26,3.602 14.971,5.403 23.133,5.403c7.092,0 14.015,-1.365 20.769,-4.095c6.754,-2.729 11.876,-5.642 15.366,-8.738l-0,-23.048l-36.389,-0Z"
    style="fill-rule:nonzero;" />
</svg>